SplineFontDB: 3.2
FontName: ULOF
FullName: Unnamed Language Original Font
FamilyName: Unnamed Language
Weight: Regular
Copyright: Copyright (c) 2020, Vortetty
UComments: "2020-8-17: Created with FontForge (http://fontforge.org)"
Version: 001.000
ItalicAngle: 0
UnderlinePosition: -100
UnderlineWidth: 50
Ascent: 800
Descent: 200
InvalidEm: 0
LayerCount: 2
Layer: 0 0 "Back" 1
Layer: 1 0 "Fore" 0
XUID: [1021 112 -1944319144 17587]
StyleMap: 0x0000
FSType: 0
OS2Version: 0
OS2_WeightWidthSlopeOnly: 0
OS2_UseTypoMetrics: 1
CreationTime: 1597699547
ModificationTime: 1597712011
PfmFamily: 17
TTFWeight: 400
TTFWidth: 5
LineGap: 90
VLineGap: 90
OS2TypoAscent: 0
OS2TypoAOffset: 1
OS2TypoDescent: 0
OS2TypoDOffset: 1
OS2TypoLinegap: 90
OS2WinAscent: 0
OS2WinAOffset: 1
OS2WinDescent: 0
OS2WinDOffset: 1
HheadAscent: 0
HheadAOffset: 1
HheadDescent: 0
HheadDOffset: 1
OS2Vendor: 'PfEd'
OS2UnicodeRanges: 00000000.10000000.00000000.00000000
MarkAttachClasses: 1
DEI: 91125
LangName: 1033
Encoding: UnicodeFull
UnicodeInterp: none
NameList: AGL For New Fonts
DisplaySize: -48
AntiAlias: 1
FitToEm: 0
WinInfo: 57252 39 14
BeginPrivate: 0
EndPrivate
TeXData: 1 0 0 346030 173015 115343 0 1048576 115343 783286 444596 497025 792723 393216 433062 380633 303038 157286 324010 404750 52429 2506097 1059062 262144
BeginChars: 1114112 22

StartChar: uniE000
Encoding: 57344 57344 0
Width: 1000
Flags: HM
LayerCount: 2
Fore
SplineSet
0 538 m 0
 0 546 4 552 11 556 c 2
 422 794 l 2
 426 796 429 797 433 797 c 0
 444 797 454 787 454 775 c 2
 454 -175 l 2
 454 -187 444 -197 433 -197 c 0
 429 -197 426 -196 422 -194 c 2
 11 44 l 2
 4 48 0 54 0 62 c 0
 0 74 10 84 21 84 c 0
 25 84 28 83 32 81 c 2
 412 -139 l 1
 412 739 l 1
 32 519 l 2
 28 517 25 516 21 516 c 0
 10 516 -0 526 0 538 c 0
EndSplineSet
Validated: 1
EndChar

StartChar: ae
Encoding: 57345 57345 1
Width: 1000
Flags: H
LayerCount: 2
Fore
SplineSet
0 62 m 0
 0 70 4 77 11 81 c 2
 412 312 l 1
 412 739 l 1
 32 519 l 2
 28 517 25 516 21 516 c 0
 10 516 -0 526 0 538 c 0
 0 546 4 552 11 556 c 2
 422 794 l 2
 429 798 437 798 444 794 c 2
 855 556 l 2
 862 552 866 546 866 538 c 0
 866 530 862 523 855 519 c 2
 454 288 l 1
 454 -139 l 1
 834 81 l 2
 838 83 841 84 845 84 c 0
 856 84 866 74 866 62 c 0
 866 54 862 48 855 44 c 2
 444 -194 l 2
 437 -198 429 -198 422 -194 c 2
 11 44 l 2
 4 48 0 54 0 62 c 0
64 62 m 1
 412 -139 l 1
 412 263 l 1
 64 62 l 1
802 538 m 1
 454 739 l 1
 454 337 l 1
 802 538 l 1
EndSplineSet
Validated: 1
EndChar

StartChar: upsideDownE
Encoding: 57346 57346 2
Width: 1000
Flags: H
LayerCount: 2
Fore
SplineSet
0 538 m 0
 0 546 4 552 11 556 c 2
 422 794 l 2
 429 798 437 798 444 794 c 2
 855 556 l 2
 862 552 866 546 866 538 c 2
 866 62 l 2
 866 50 856 41 845 41 c 0
 841 41 838 42 834 44 c 2
 422 282 l 2
 416 285 412 292 412 300 c 0
 412 308 416 315 422 318 c 2
 802 538 l 1
 433 751 l 1
 32 519 l 2
 28 517 25 516 21 516 c 0
 10 516 -0 526 0 538 c 0
476 300 m 1
 823 99 l 1
 823 501 l 1
 476 300 l 1
EndSplineSet
Validated: 1
EndChar

StartChar: o
Encoding: 57347 57347 3
Width: 1000
Flags: H
LayerCount: 2
Fore
SplineSet
422 -194 m 2
 11 44 l 2
 4 48 0 54 0 62 c 2
 0 538 l 2
 0 550 10 559 21 559 c 0
 25 559 28 558 32 556 c 2
 412 337 l 1
 412 775 l 2
 412 787 422 797 433 797 c 0
 437 797 440 796 444 794 c 2
 855 556 l 2
 862 552 866 546 866 538 c 0
 866 526 856 516 845 516 c 0
 841 516 838 517 834 519 c 2
 454 739 l 1
 454 300 l 2
 454 288 444 279 433 279 c 0
 429 279 426 280 422 282 c 2
 43 501 l 1
 43 75 l 1
 444 -157 l 2
 450 -161 454 -168 454 -175 c 0
 454 -187 444 -197 433 -197 c 0
 429 -197 426 -196 422 -194 c 2
EndSplineSet
Validated: 1
EndChar

StartChar: p
Encoding: 57348 57348 4
Width: 1000
Flags: H
LayerCount: 2
Fore
SplineSet
0 62 m 0
 0 70 4 77 11 81 c 2
 834 556 l 2
 838 558 841 559 845 559 c 0
 856 559 866 550 866 538 c 0
 866 530 862 523 855 519 c 2
 32 44 l 2
 28 42 25 41 21 41 c 0
 10 41 0 50 0 62 c 0
EndSplineSet
Validated: 1
EndChar

StartChar: b
Encoding: 57349 57349 5
Width: 1000
Flags: H
LayerCount: 2
Fore
SplineSet
0 538 m 0
 0 546 4 552 11 556 c 2
 422 794 l 2
 426 796 429 797 433 797 c 0
 444 797 454 787 454 775 c 2
 454 312 l 1
 823 99 l 1
 823 538 l 2
 823 549 833 559 845 559 c 0
 857 559 866 549 866 538 c 2
 866 62 l 2
 866 50 856 41 845 41 c 0
 841 41 838 42 834 44 c 2
 433 275 l 1
 64 62 l 1
 444 -157 l 2
 450 -161 454 -168 454 -175 c 0
 454 -187 444 -197 433 -197 c 0
 429 -197 426 -196 422 -194 c 2
 11 44 l 2
 4 48 0 54 0 62 c 0
 0 70 4 77 11 81 c 2
 412 312 l 1
 412 739 l 1
 32 519 l 2
 28 517 25 516 21 516 c 0
 10 516 -0 526 0 538 c 0
EndSplineSet
Validated: 1
EndChar

StartChar: t
Encoding: 57350 57350 6
Width: 1000
Flags: H
LayerCount: 2
Fore
SplineSet
0 538 m 0
 0 546 4 552 11 556 c 2
 422 794 l 2
 426 796 429 797 433 797 c 0
 444 797 454 787 454 775 c 2
 454 337 l 1
 834 556 l 2
 838 558 841 559 845 559 c 0
 856 559 866 550 866 538 c 2
 866 62 l 2
 866 50 856 41 845 41 c 0
 841 41 838 42 834 44 c 2
 422 282 l 2
 416 285 412 292 412 300 c 2
 412 739 l 1
 32 519 l 2
 28 517 25 516 21 516 c 0
 10 516 -0 526 0 538 c 0
823 99 m 1
 823 501 l 1
 476 300 l 1
 823 99 l 1
EndSplineSet
Validated: 1
EndChar

StartChar: d
Encoding: 57351 57351 7
Width: 1000
Flags: H
LayerCount: 2
Fore
SplineSet
412 300 m 2
 412 739 l 1
 43 525 l 1
 43 75 l 1
 433 -151 l 1
 823 75 l 1
 823 538 l 2
 823 549 833 559 845 559 c 0
 857 559 866 549 866 538 c 2
 866 62 l 2
 866 54 862 48 855 44 c 2
 444 -194 l 2
 437 -198 429 -198 422 -194 c 2
 11 44 l 2
 4 48 0 54 0 62 c 2
 0 538 l 2
 0 546 4 552 11 556 c 2
 422 794 l 2
 426 796 429 797 433 797 c 0
 444 797 454 787 454 775 c 2
 454 300 l 2
 454 288 445 279 433 279 c 0
 421 279 412 288 412 300 c 2
EndSplineSet
Validated: 1
EndChar

StartChar: k
Encoding: 57352 57352 8
Width: 1000
Flags: H
LayerCount: 2
Fore
SplineSet
422 -194 m 2
 11 44 l 2
 4 48 0 54 0 62 c 2
 0 538 l 2
 0 549 10 559 21 559 c 0
 33 559 43 549 43 538 c 2
 43 75 l 1
 444 -157 l 2
 450 -161 454 -168 454 -175 c 0
 454 -187 444 -197 433 -197 c 0
 429 -197 426 -196 422 -194 c 2
444 794 m 2
 855 556 l 2
 862 552 866 546 866 538 c 2
 866 62 l 2
 866 51 857 41 845 41 c 0
 833 41 823 51 823 62 c 2
 823 525 l 1
 422 757 l 2
 416 761 412 768 412 775 c 0
 412 787 422 797 433 797 c 0
 437 797 440 796 444 794 c 2
EndSplineSet
Validated: 1
EndChar

StartChar: glottalStop
Encoding: 57353 57353 9
Width: 1000
Flags: H
LayerCount: 2
Fore
SplineSet
64 62 m 1
 412 -139 l 1
 412 263 l 1
 64 62 l 1
866 538 m 0
 866 530 862 523 855 519 c 2
 454 288 l 1
 454 -175 l 2
 454 -187 444 -197 433 -197 c 0
 429 -197 426 -196 422 -194 c 2
 11 44 l 2
 4 48 0 54 0 62 c 0
 0 70 4 77 11 81 c 2
 412 312 l 1
 412 775 l 2
 412 787 422 797 433 797 c 0
 437 797 440 796 444 794 c 2
 855 556 l 2
 862 552 866 546 866 538 c 0
802 538 m 1
 454 739 l 1
 454 337 l 1
 802 538 l 1
EndSplineSet
Validated: 1
EndChar

StartChar: uniE00A
Encoding: 57354 57354 10
Width: 1000
Flags: H
LayerCount: 2
Fore
SplineSet
0 62 m 2
 0 538 l 2
 0 550 10 559 21 559 c 0
 25 559 28 558 32 556 c 2
 412 337 l 1
 412 775 l 2
 412 787 421 797 433 797 c 0
 445 797 454 787 454 775 c 2
 454 337 l 1
 834 556 l 2
 838 558 841 559 845 559 c 0
 856 559 866 550 866 538 c 0
 866 530 862 523 855 519 c 2
 454 288 l 1
 454 -175 l 2
 454 -187 445 -197 433 -197 c 0
 421 -197 412 -187 412 -175 c 2
 412 288 l 1
 43 501 l 1
 43 62 l 2
 43 51 33 41 21 41 c 0
 10 41 0 51 0 62 c 2
EndSplineSet
Validated: 1
EndChar

StartChar: uniE00B
Encoding: 57355 57355 11
Width: 1000
Flags: H
LayerCount: 2
Fore
SplineSet
21 559 m 2
 765 559 l 1
 422 757 l 2
 416 761 412 768 412 775 c 0
 412 787 422 797 433 797 c 0
 437 797 440 796 444 794 c 2
 855 556 l 2
 862 552 866 546 866 538 c 0
 866 526 857 516 845 516 c 2
 21 516 l 2
 10 516 0 526 0 538 c 0
 0 549 10 559 21 559 c 2
845 41 m 2
 101 41 l 1
 444 -157 l 2
 450 -161 454 -168 454 -175 c 0
 454 -187 444 -197 433 -197 c 0
 429 -197 426 -196 422 -194 c 2
 11 44 l 2
 4 48 0 54 0 62 c 0
 0 74 10 84 21 84 c 2
 845 84 l 2
 857 84 866 74 866 62 c 0
 866 51 857 41 845 41 c 2
EndSplineSet
Validated: 1
EndChar

StartChar: uniE00C
Encoding: 57356 57356 12
Width: 1000
Flags: H
LayerCount: 2
Fore
SplineSet
0 538 m 0
 0 546 4 552 11 556 c 2
 422 794 l 2
 429 798 437 798 444 794 c 2
 855 556 l 2
 862 552 866 546 866 538 c 0
 866 526 856 516 845 516 c 0
 841 516 838 517 834 519 c 2
 433 751 l 1
 32 519 l 2
 28 517 25 516 21 516 c 0
 10 516 -0 526 0 538 c 0
32 81 m 2
 433 -151 l 1
 834 81 l 2
 838 83 841 84 845 84 c 0
 856 84 866 74 866 62 c 0
 866 54 862 48 855 44 c 2
 444 -194 l 2
 437 -198 429 -198 422 -194 c 2
 11 44 l 2
 4 48 0 54 0 62 c 0
 0 74 10 84 21 84 c 0
 25 84 28 83 32 81 c 2
EndSplineSet
Validated: 1
EndChar

StartChar: uniE00D
Encoding: 57357 57357 13
Width: 1000
Flags: H
LayerCount: 2
Fore
SplineSet
0 538 m 0
 0 546 4 552 11 556 c 2
 422 794 l 2
 429 798 437 798 444 794 c 2
 855 556 l 2
 862 552 866 546 866 538 c 0
 866 526 856 516 845 516 c 0
 841 516 838 517 834 519 c 2
 433 751 l 1
 32 519 l 2
 28 517 25 516 21 516 c 0
 10 516 -0 526 0 538 c 0
0 62 m 0
 0 70 4 77 11 81 c 2
 422 318 l 2
 429 322 437 322 444 318 c 2
 855 81 l 2
 862 77 866 70 866 62 c 0
 866 50 856 41 845 41 c 0
 841 41 838 42 834 44 c 2
 433 275 l 1
 32 44 l 2
 28 42 25 41 21 41 c 0
 10 41 0 50 0 62 c 0
EndSplineSet
Validated: 1
EndChar

StartChar: uniE00E
Encoding: 57358 57358 14
Width: 1000
Flags: H
LayerCount: 2
Fore
SplineSet
433 325 m 1
 802 538 l 1
 433 751 l 1
 64 538 l 1
 433 325 l 1
422 282 m 2
 11 519 l 2
 4 523 0 530 0 538 c 0
 0 546 4 552 11 556 c 2
 422 794 l 2
 429 798 437 798 444 794 c 2
 855 556 l 2
 862 552 866 546 866 538 c 0
 866 530 862 523 855 519 c 2
 444 282 l 2
 437 278 429 278 422 282 c 2
EndSplineSet
Validated: 1
EndChar

StartChar: uniE00F
Encoding: 57359 57359 15
Width: 1000
Flags: H
LayerCount: 2
Fore
SplineSet
0 62 m 0
 0 70 4 77 11 81 c 2
 390 300 l 1
 11 519 l 2
 4 523 0 530 0 538 c 0
 0 550 10 559 21 559 c 0
 25 559 28 558 32 556 c 2
 412 337 l 1
 412 775 l 2
 412 787 421 797 433 797 c 0
 445 797 454 787 454 775 c 2
 454 337 l 1
 834 556 l 2
 838 558 841 559 845 559 c 0
 856 559 866 550 866 538 c 0
 866 530 862 523 855 519 c 2
 476 300 l 1
 855 81 l 2
 862 77 866 70 866 62 c 0
 866 50 856 41 845 41 c 0
 841 41 838 42 834 44 c 2
 454 263 l 1
 454 -175 l 2
 454 -187 445 -197 433 -197 c 0
 421 -197 412 -187 412 -175 c 2
 412 263 l 1
 32 44 l 2
 28 42 25 41 21 41 c 0
 10 41 0 50 0 62 c 0
EndSplineSet
Validated: 1
EndChar

StartChar: uniE010
Encoding: 57360 57360 16
Width: 1000
Flags: H
LayerCount: 2
Fore
SplineSet
32 81 m 2
 412 -139 l 1
 412 775 l 2
 412 787 422 797 433 797 c 0
 437 797 440 796 444 794 c 2
 855 556 l 2
 862 552 866 546 866 538 c 0
 866 526 856 516 845 516 c 0
 841 516 838 517 834 519 c 2
 454 739 l 1
 454 -175 l 2
 454 -187 444 -197 433 -197 c 0
 429 -197 426 -196 422 -194 c 2
 11 44 l 2
 4 48 0 54 0 62 c 0
 0 74 10 84 21 84 c 0
 25 84 28 83 32 81 c 2
EndSplineSet
Validated: 1
EndChar

StartChar: uniE011
Encoding: 57361 57361 17
Width: 1000
Flags: H
LayerCount: 2
Fore
SplineSet
422 -194 m 2
 11 44 l 2
 4 48 0 54 0 62 c 0
 0 74 10 84 21 84 c 0
 25 84 28 83 32 81 c 2
 412 -139 l 1
 412 300 l 2
 412 312 421 321 433 321 c 0
 445 321 454 312 454 300 c 2
 454 -139 l 1
 834 81 l 2
 838 83 841 84 845 84 c 0
 856 84 866 74 866 62 c 0
 866 54 862 48 855 44 c 2
 444 -194 l 2
 437 -198 429 -198 422 -194 c 2
EndSplineSet
Validated: 1
EndChar

StartChar: uniE012
Encoding: 57362 57362 18
Width: 1000
Flags: H
LayerCount: 2
Fore
SplineSet
834 519 m 2
 454 739 l 1
 454 312 l 1
 855 81 l 2
 862 77 866 70 866 62 c 0
 866 50 856 41 845 41 c 0
 841 41 838 42 834 44 c 2
 454 263 l 1
 454 -175 l 2
 454 -187 445 -197 433 -197 c 0
 421 -197 412 -187 412 -175 c 2
 412 775 l 2
 412 787 422 797 433 797 c 0
 437 797 440 796 444 794 c 2
 855 556 l 2
 862 552 866 546 866 538 c 0
 866 526 856 516 845 516 c 0
 841 516 838 517 834 519 c 2
EndSplineSet
Validated: 1
EndChar

StartChar: uniE013
Encoding: 57363 57363 19
Width: 1000
Flags: H
LayerCount: 2
Fore
SplineSet
43 538 m 2
 43 75 l 1
 412 -139 l 1
 412 300 l 2
 412 312 421 321 433 321 c 0
 445 321 454 312 454 300 c 2
 454 -175 l 2
 454 -187 444 -197 433 -197 c 0
 429 -197 426 -196 422 -194 c 2
 11 44 l 2
 4 48 0 54 0 62 c 2
 0 538 l 2
 0 549 10 559 21 559 c 0
 33 559 43 549 43 538 c 2
EndSplineSet
Validated: 1
EndChar

StartChar: uniE014
Encoding: 57364 57364 20
Width: 1000
Flags: H
LayerCount: 2
Fore
SplineSet
866 538 m 0
 866 530 862 523 855 519 c 0
 581 361 306 202 32 44 c 0
 28 42 25 41 21 41 c 0
 10 41 0 50 0 62 c 0
 0 70 4 77 11 81 c 2
 412 312 l 1
 412 775 l 2
 412 787 421 797 433 797 c 0
 445 797 454 787 454 775 c 2
 454 337 l 1
 834 556 l 2
 838 558 841 559 845 559 c 0
 856 559 866 550 866 538 c 0
EndSplineSet
Validated: 1
EndChar

StartChar: uniE015
Encoding: 57365 57365 21
Width: 1000
Flags: HO
LayerCount: 2
Fore
SplineSet
3 73 m 2
 415 786 l 2
 418 792 425 797 433 797 c 0
 445 797 454 787 454 775 c 2
 454 337 l 1
 834 556 l 2
 838 558 841 559 845 559 c 0
 856 559 866 549 866 537 c 0
 866 534 865 530 863 527 c 2
 451 -186 l 2
 448 -192 441 -197 433 -197 c 0
 421 -197 412 -187 412 -175 c 0
 412 -172 413 -168 415 -165 c 2
 787 480 l 1
 444 282 l 2
 440 280 437 279 433 279 c 0
 422 279 412 288 412 300 c 2
 412 696 l 1
 40 52 l 2
 36 45 29 41 21 41 c 0
 9 41 -0 51 -0 62 c 0
 -0 66 1 69 3 73 c 2
EndSplineSet
EndChar
